<svg width="40" height="40" viewBox="0 0 40 40" fill="none" xmlns="http://www.w3.org/2000/svg">
<path d="M20 30C24.6024 30 28.3333 26.269 28.3333 21.6667C28.3333 17.0643 24.6024 13.3333 20 13.3333C15.3976 13.3333 11.6667 17.0643 11.6667 21.6667C11.6667 26.269 15.3976 30 20 30Z" stroke="#FFD700" stroke-width="2" stroke-miterlimit="10" stroke-linecap="square"/>
<path d="M35 36.6667H5C4.11595 36.6667 3.2681 36.3155 2.64298 35.6904C2.01786 35.0652 1.66667 34.2174 1.66667 33.3333V11.6667C1.66667 10.7826 2.01786 9.93476 2.64298 9.30964C3.2681 8.68452 4.11595 8.33333 5 8.33333H11.6667L15 3.33333H25L28.3333 8.33333H35C35.8841 8.33333 36.7319 8.68452 37.357 9.30964C37.9821 9.93476 38.3333 10.7826 38.3333 11.6667V33.3333C38.3333 34.2174 37.9821 35.0652 37.357 35.6904C36.7319 36.3155 35.8841 36.6667 35 36.6667Z" stroke="#FFD700" stroke-width="2" stroke-miterlimit="10" stroke-linecap="square"/>
<path d="M7.33333 13.3333C7.33333 13.7015 7.03486 14 6.66667 14C6.29848 14 6 13.7015 6 13.3333C6 12.9651 6.29848 12.6667 6.66667 12.6667C7.03486 12.6667 7.33333 12.9651 7.33333 13.3333Z" stroke="#FFD700" stroke-width="2"/>
</svg>
