<svg width="40" height="40" viewBox="0 0 40 40" fill="none" xmlns="http://www.w3.org/2000/svg">
<path d="M26.1783 16.6783L30.7517 5.26165C30.9018 4.8881 31.1241 4.54782 31.4059 4.26025C31.6877 3.97269 32.0234 3.74349 32.3938 3.58576C32.7642 3.42802 33.1621 3.34486 33.5647 3.34101C33.9672 3.33716 34.3666 3.4127 34.74 3.56332C34.8184 3.59365 34.8952 3.62814 34.97 3.66665V3.66665C35.3297 3.8473 35.6504 4.09705 35.9136 4.40162C36.1768 4.7062 36.3774 5.05964 36.504 5.44176C36.6306 5.82388 36.6807 6.2272 36.6514 6.62869C36.6221 7.03017 36.514 7.42195 36.3333 7.78165C36.2967 7.85665 36.2567 7.92832 36.2133 7.99999L30.505 17.4167" stroke="#FFD700" stroke-width="2" stroke-miterlimit="10"/>
<path d="M1.66667 28.3333H38.3333" stroke="#FFD700" stroke-width="2" stroke-miterlimit="10" stroke-linecap="square"/>
<path d="M36.6667 28.3333L35.8483 30.38C35.1062 32.2358 33.8249 33.8266 32.1699 34.9472C30.5149 36.0677 28.562 36.6667 26.5633 36.6667H13.4367C11.438 36.6667 9.48514 36.0677 7.83012 34.9472C6.1751 33.8266 4.89385 32.2358 4.15167 30.38L3.33333 28.3333" stroke="#FFD700" stroke-width="2" stroke-miterlimit="10"/>
<path d="M19 10V12.2063C18.314 12.0292 17.6811 11.6713 17.1716 11.1618C16.4214 10.4116 16 9.3942 16 8.33333V6.12701C16.686 6.30416 17.3189 6.66203 17.8284 7.17157C18.5786 7.92172 19 8.93913 19 10Z" stroke="#FFD700" stroke-width="2"/>
<path d="M5 23.3333C5 19.6516 8.73167 16.6666 13.3333 16.6666C14.567 16.6384 15.7936 16.86 16.9393 17.3183C18.085 17.7766 19.1262 18.462 20 19.3333" stroke="#FFD700" stroke-width="2" stroke-miterlimit="10"/>
<path d="M18.3333 23.3333C18.3333 19.6517 22.065 16.6667 26.6667 16.6667C31.2683 16.6667 35 19.6517 35 23.3333" stroke="#FFD700" stroke-width="2" stroke-miterlimit="10"/>
</svg>
