<svg width="40" height="40" viewBox="0 0 40 40" fill="none" xmlns="http://www.w3.org/2000/svg">
<g clip-path="url(#clip0_1_36)">
<path d="M4.99999 8.33333C3.16666 8.33333 1.66666 6.83333 1.66666 5V26.6667C1.66666 29.5 3.83332 31.6667 6.66666 31.6667H35C36.8333 31.6667 38.3333 33.1667 38.3333 35V13.3333C38.3333 10.5 36.1667 8.33333 33.3333 8.33333H4.99999Z" stroke="white" stroke-width="2" stroke-miterlimit="10" stroke-linecap="square"/>
<path d="M9.99999 8.33334V1.66667H4.99999C3.16666 1.66667 1.66666 3.16667 1.66666 5" stroke="white" stroke-width="2" stroke-miterlimit="10" stroke-linecap="square"/>
<path d="M30 31.6667V38.3333H35C36.8333 38.3333 38.3333 36.8333 38.3333 35" stroke="white" stroke-width="2" stroke-miterlimit="10" stroke-linecap="square"/>
<path d="M25 16.6667L31.6667 23.3333" stroke="white" stroke-width="2" stroke-miterlimit="10" stroke-linecap="square"/>
<path d="M31.6667 16.6667L25 23.3333" stroke="white" stroke-width="2" stroke-miterlimit="10" stroke-linecap="square"/>
<path d="M8.33331 20H9.99998" stroke="white" stroke-width="2" stroke-miterlimit="10" stroke-linecap="square"/>
<path d="M16.6667 20H18.3333" stroke="white" stroke-width="2" stroke-miterlimit="10" stroke-linecap="square"/>
</g>
<defs>
<clipPath id="clip0_1_36">
<rect width="40" height="40" fill="white"/>
</clipPath>
</defs>
</svg>
